<?xml version="1.0" encoding="UTF-8" standalone="no" ?>
<!DOCTYPE svg PUBLIC "-//W3C//DTD SVG 1.1//EN" "http://www.w3.org/Graphics/SVG/1.1/DTD/svg11.dtd">
<svg xmlns="http://www.w3.org/2000/svg" xmlns:xlink="http://www.w3.org/1999/xlink" version="1.1" width="1080" height="300" viewBox="0 173.33 1080 300" xml:space="preserve">
<desc>Created with Fabric.js 5.2.4</desc>
<defs>
</defs>
<rect x="0" y="0" width="100%" height="100%" fill="transparent"></rect>
<g transform="matrix(1 0 0 1 540 150)" id="b5327225-d932-48a1-932f-35e039543c50"  >
<rect style="stroke: none; stroke-width: 1; stroke-dasharray: none; stroke-linecap: butt; stroke-dashoffset: 0; stroke-linejoin: miter; stroke-miterlimit: 4; fill: rgb(255,255,255); fill-rule: nonzero; opacity: 1; visibility: hidden;" vector-effect="non-scaling-stroke"  x="-540" y="-150" rx="0" ry="0" width="1080" height="300" />
</g>
<g transform="matrix(Infinity NaN NaN Infinity 0 0)" id="67be5b5e-a9d5-41c8-97f8-e47f1c10cc4a"  >
</g>
<g transform="matrix(0.37 0 0 0.37 1021.2 304.91)"  >
<path style="stroke: none; stroke-width: 1; stroke-dasharray: none; stroke-linecap: butt; stroke-dashoffset: 0; stroke-linejoin: miter; stroke-miterlimit: 4; fill: rgb(255,255,255); fill-rule: nonzero; opacity: 1;" vector-effect="non-scaling-stroke"  transform=" translate(-22.95, 9.55)" d="M 36.296875 -34.828125 L 36.296875 -40.625 L 43.21875 -40.625 L 43.21875 1.46875 C 43.21875 8.269531 41.316406 13.5 37.515625 17.15625 C 33.710938 20.8125 28.988281 22.640625 23.34375 22.640625 C 17.570312 22.640625 12.828125 20.925781 9.109375 17.5 C 5.398438 14.070312 3.488281 9.5625 3.375 3.96875 L 10.28125 3.96875 C 10.28125 7.539062 11.472656 10.476562 13.859375 12.78125 C 16.253906 15.09375 19.414062 16.25 23.34375 16.25 C 27.601562 16.25 30.828125 14.921875 33.015625 12.265625 C 35.203125 9.617188 36.296875 5.242188 36.296875 -0.859375 L 36.296875 -5.625 L 36.125 -5.625 C 34.507812 -3.539062 32.445312 -1.894531 29.9375 -0.6875 C 27.4375 0.519531 24.804688 1.125 22.046875 1.125 C 18.296875 1.125 14.953125 0.175781 12.015625 -1.71875 C 9.078125 -3.625 6.785156 -6.203125 5.140625 -9.453125 C 3.492188 -12.710938 2.671875 -16.273438 2.671875 -20.140625 C 2.671875 -24.117188 3.519531 -27.765625 5.21875 -31.078125 C 6.925781 -34.390625 9.273438 -36.992188 12.265625 -38.890625 C 15.265625 -40.796875 18.609375 -41.75 22.296875 -41.75 C 25.117188 -41.75 27.710938 -41.144531 30.078125 -39.9375 C 32.441406 -38.726562 34.457031 -37.023438 36.125 -34.828125 Z M 23 -35.359375 C 20.570312 -35.359375 18.347656 -34.722656 16.328125 -33.453125 C 14.316406 -32.179688 12.71875 -30.40625 11.53125 -28.125 C 10.351562 -25.851562 9.765625 -23.394531 9.765625 -20.75 C 9.765625 -16.3125 11.003906 -12.617188 13.484375 -9.671875 C 15.960938 -6.734375 19.160156 -5.265625 23.078125 -5.265625 C 27.171875 -5.265625 30.457031 -6.707031 32.9375 -9.59375 C 35.414062 -12.476562 36.65625 -16.164062 36.65625 -20.65625 C 36.65625 -24.976562 35.367188 -28.507812 32.796875 -31.25 C 30.234375 -33.988281 26.96875 -35.359375 23 -35.359375 Z M 23 -35.359375" stroke-linecap="round" />
</g>
<g transform="matrix(0.37 0 0 0.37 1038.47 300.94)"  >
<path style="stroke: none; stroke-width: 1; stroke-dasharray: none; stroke-linecap: butt; stroke-dashoffset: 0; stroke-linejoin: miter; stroke-miterlimit: 4; fill: rgb(255,255,255); fill-rule: nonzero; opacity: 1;" vector-effect="non-scaling-stroke"  transform=" translate(-22.48, 20.31)" d="M 41.921875 -18.84375 L 10.03125 -18.84375 C 10.144531 -14.8125 11.46875 -11.539062 14 -9.03125 C 16.539062 -6.519531 19.65625 -5.265625 23.34375 -5.265625 C 25.9375 -5.265625 28.222656 -5.925781 30.203125 -7.25 C 32.191406 -8.582031 34.023438 -10.71875 35.703125 -13.65625 L 41.578125 -10.28125 C 39.617188 -6.65625 37.039062 -3.847656 33.84375 -1.859375 C 30.644531 0.128906 26.96875 1.125 22.8125 1.125 C 18.84375 1.125 15.328125 0.175781 12.265625 -1.71875 C 9.210938 -3.625 6.894531 -6.175781 5.3125 -9.375 C 3.726562 -12.570312 2.9375 -16.046875 2.9375 -19.796875 C 2.9375 -23.941406 3.726562 -27.6875 5.3125 -31.03125 C 6.894531 -34.375 9.1875 -36.992188 12.1875 -38.890625 C 15.1875 -40.796875 18.671875 -41.75 22.640625 -41.75 C 26.503906 -41.75 29.921875 -40.8125 32.890625 -38.9375 C 35.859375 -37.0625 38.117188 -34.484375 39.671875 -31.203125 C 41.234375 -27.921875 42.015625 -24.234375 42.015625 -20.140625 C 42.015625 -19.734375 41.984375 -19.300781 41.921875 -18.84375 Z M 34.65625 -24.71875 C 34.082031 -27.882812 32.671875 -30.445312 30.421875 -32.40625 C 28.179688 -34.375 25.617188 -35.359375 22.734375 -35.359375 C 19.910156 -35.359375 17.257812 -34.332031 14.78125 -32.28125 C 12.300781 -30.238281 10.832031 -27.71875 10.375 -24.71875 Z M 34.65625 -24.71875" stroke-linecap="round" />
</g>
<g transform="matrix(0.37 0 0 0.37 1054.09 300.73)"  >
<path style="stroke: none; stroke-width: 1; stroke-dasharray: none; stroke-linecap: butt; stroke-dashoffset: 0; stroke-linejoin: miter; stroke-miterlimit: 4; fill: rgb(255,255,255); fill-rule: nonzero; opacity: 1;" vector-effect="non-scaling-stroke"  transform=" translate(-22.81, 20.88)" d="M 39.0625 0 L 32.15625 0 L 32.15625 -23.6875 C 32.15625 -27.78125 31.535156 -30.75 30.296875 -32.59375 C 29.054688 -34.4375 26.820312 -35.359375 23.59375 -35.359375 C 19.90625 -35.359375 17.296875 -34.085938 15.765625 -31.546875 C 14.242188 -29.015625 13.484375 -25.15625 13.484375 -19.96875 L 13.484375 0 L 6.5625 0 L 6.5625 -40.625 L 13.484375 -40.625 L 13.484375 -35.703125 L 13.65625 -35.703125 C 15.09375 -37.660156 16.75 -39.15625 18.625 -40.1875 C 20.5 -41.226562 22.703125 -41.75 25.234375 -41.75 C 29.785156 -41.75 33.226562 -40.347656 35.5625 -37.546875 C 37.894531 -34.753906 39.0625 -30.421875 39.0625 -24.546875 Z M 39.0625 0" stroke-linecap="round" />
</g>
<g transform="matrix(0.37 0 0 0.37 1073.58 300.89)"  >
<path style="stroke: none; stroke-width: 1; stroke-dasharray: none; stroke-linecap: butt; stroke-dashoffset: 0; stroke-linejoin: miter; stroke-miterlimit: 4; fill: rgb(228,23,23); fill-rule: nonzero; opacity: 1;" vector-effect="non-scaling-stroke"  transform=" translate(-32.85, 20.44)" d="M 32.765625 -43.734375 L 45.46875 -13.140625 L 57.5625 -40.625 L 65.4375 -40.625 L 45.296875 2.859375 L 32.765625 -27.40625 L 20.21875 2.859375 L 0.265625 -40.625 L 8.125 -40.625 L 20.140625 -13.140625 Z M 9.859375 0 Z M 9.859375 0" stroke-linecap="round" />
</g>
<g transform="matrix(0.37 0 0 0.37 1091.07 300.73)"  >
<path style="stroke: none; stroke-width: 1; stroke-dasharray: none; stroke-linecap: butt; stroke-dashoffset: 0; stroke-linejoin: miter; stroke-miterlimit: 4; fill: rgb(228,23,23); fill-rule: nonzero; opacity: 1;" vector-effect="non-scaling-stroke"  transform=" translate(-17.38, 20.88)" d="M 25.234375 -33.53125 C 24.546875 -34.050781 23.898438 -34.484375 23.296875 -34.828125 C 22.691406 -35.179688 21.957031 -35.359375 21.09375 -35.359375 C 18.5 -35.359375 16.523438 -34.203125 15.171875 -31.890625 C 13.816406 -29.585938 13.140625 -25.875 13.140625 -20.75 L 13.140625 0 L 6.21875 0 L 6.21875 -40.625 L 13.140625 -40.625 L 13.140625 -36.21875 L 13.3125 -36.21875 C 14.976562 -38.46875 16.457031 -39.953125 17.75 -40.671875 C 19.050781 -41.390625 20.566406 -41.75 22.296875 -41.75 C 23.335938 -41.75 24.390625 -41.578125 25.453125 -41.234375 C 26.523438 -40.890625 27.550781 -40.425781 28.53125 -39.84375 Z M 25.234375 -33.53125" stroke-linecap="round" />
</g>
<g transform="matrix(0.37 0 0 0.37 1103.23 300.94)"  >
<path style="stroke: none; stroke-width: 1; stroke-dasharray: none; stroke-linecap: butt; stroke-dashoffset: 0; stroke-linejoin: miter; stroke-miterlimit: 4; fill: rgb(228,23,23); fill-rule: nonzero; opacity: 1;" vector-effect="non-scaling-stroke"  transform=" translate(-24.29, 20.31)" d="M 2.9375 -20.21875 C 2.9375 -24.082031 3.882812 -27.6875 5.78125 -31.03125 C 7.6875 -34.375 10.28125 -36.992188 13.5625 -38.890625 C 16.851562 -40.796875 20.425781 -41.75 24.28125 -41.75 C 28.144531 -41.75 31.703125 -40.796875 34.953125 -38.890625 C 38.210938 -36.992188 40.804688 -34.390625 42.734375 -31.078125 C 44.671875 -27.765625 45.640625 -24.144531 45.640625 -20.21875 C 45.640625 -16.363281 44.6875 -12.78125 42.78125 -9.46875 C 40.882812 -6.15625 38.289062 -3.5625 35 -1.6875 C 31.71875 0.1875 28.144531 1.125 24.28125 1.125 C 20.425781 1.125 16.84375 0.175781 13.53125 -1.71875 C 10.21875 -3.625 7.625 -6.234375 5.75 -9.546875 C 3.875 -12.859375 2.9375 -16.414062 2.9375 -20.21875 Z M 24.203125 -35.359375 C 20.109375 -35.359375 16.691406 -33.898438 13.953125 -30.984375 C 11.222656 -28.078125 9.859375 -24.519531 9.859375 -20.3125 C 9.859375 -17.195312 10.601562 -14.441406 12.09375 -12.046875 C 13.59375 -9.660156 15.421875 -7.929688 17.578125 -6.859375 C 19.742188 -5.796875 21.976562 -5.265625 24.28125 -5.265625 C 26.9375 -5.265625 29.359375 -5.882812 31.546875 -7.125 C 33.734375 -8.363281 35.472656 -10.148438 36.765625 -12.484375 C 38.066406 -14.816406 38.71875 -17.425781 38.71875 -20.3125 C 38.71875 -22.957031 38.128906 -25.429688 36.953125 -27.734375 C 35.773438 -30.046875 34.0625 -31.894531 31.8125 -33.28125 C 29.5625 -34.664062 27.023438 -35.359375 24.203125 -35.359375 Z M 24.203125 -35.359375" stroke-linecap="round" />
</g>
<g transform="matrix(0.37 0 0 0.37 1116.05 307.1)"  >
<path style="stroke: none; stroke-width: 1; stroke-dasharray: none; stroke-linecap: butt; stroke-dashoffset: 0; stroke-linejoin: miter; stroke-miterlimit: 4; fill: rgb(255,255,255); fill-rule: nonzero; opacity: 1;" vector-effect="non-scaling-stroke"  transform=" translate(-13.31, 3.72)" d="M 13.3125 1.125 C 11.988281 1.125 10.847656 0.632812 9.890625 -0.34375 C 8.941406 -1.320312 8.46875 -2.472656 8.46875 -3.796875 C 8.46875 -5.066406 8.941406 -6.175781 9.890625 -7.125 C 10.847656 -8.082031 11.988281 -8.5625 13.3125 -8.5625 C 14.632812 -8.5625 15.769531 -8.082031 16.71875 -7.125 C 17.675781 -6.175781 18.15625 -5.066406 18.15625 -3.796875 C 18.15625 -2.472656 17.675781 -1.320312 16.71875 -0.34375 C 15.769531 0.632812 14.632812 1.125 13.3125 1.125 Z M 13.3125 1.125" stroke-linecap="round" />
</g>
<g transform="matrix(0.37 0 0 0.37 1131.02 295.81)"  >
<path style="stroke: none; stroke-width: 1; stroke-dasharray: none; stroke-linecap: butt; stroke-dashoffset: 0; stroke-linejoin: miter; stroke-miterlimit: 4; fill: rgb(255,255,255); fill-rule: nonzero; opacity: 1;" vector-effect="non-scaling-stroke"  transform=" translate(-30.21, 34.14)" d="M 30.59375 -68.28125 L 59.90625 0 L 51.859375 0 L 44.171875 -18.5 L 16.34375 -18.5 L 8.46875 0 L 0.515625 0 Z M 19.28125 -25.234375 L 41.3125 -25.234375 L 30.421875 -51.34375 Z M 11.75 -65.171875 Z M 11.75 -65.171875" stroke-linecap="round" />
</g>
<g transform="matrix(0.37 0 0 0.37 1144.95 296.38)"  >
<path style="stroke: none; stroke-width: 1; stroke-dasharray: none; stroke-linecap: butt; stroke-dashoffset: 0; stroke-linejoin: miter; stroke-miterlimit: 4; fill: rgb(255,255,255); fill-rule: nonzero; opacity: 1;" vector-effect="non-scaling-stroke"  transform=" translate(-10.37, 32.59)" d="M 14 -65.171875 L 14 0 L 6.734375 0 L 6.734375 -65.171875 Z M 14 -65.171875" stroke-linecap="round" />
</g>
<g transform="matrix(1 0 0 1 540 315.56)"  >
<g style="" vector-effect="non-scaling-stroke"   >
		<g transform="matrix(1 0 0 1 0 0)"  >
<rect style="stroke: none; stroke-width: 1; stroke-dasharray: none; stroke-linecap: butt; stroke-dashoffset: 0; stroke-linejoin: miter; stroke-miterlimit: 4; fill: rgb(255,255,255); fill-rule: nonzero; opacity: 1; visibility: hidden;" vector-effect="non-scaling-stroke"  x="-540" y="-540" rx="0" ry="0" width="1080" height="1080" />
</g>
		<g transform="matrix(1.33 0 0 1.33 -211.72 17.58)"  >
<path style="stroke: none; stroke-width: 1; stroke-dasharray: none; stroke-linecap: butt; stroke-dashoffset: 0; stroke-linejoin: miter; stroke-miterlimit: 4; fill: rgb(255,255,255); fill-rule: nonzero; opacity: 1;" vector-effect="non-scaling-stroke"  transform=" translate(-22.95, 9.55)" d="M 36.296875 -34.828125 L 36.296875 -40.625 L 43.21875 -40.625 L 43.21875 1.46875 C 43.21875 8.269531 41.316406 13.5 37.515625 17.15625 C 33.710938 20.8125 28.988281 22.640625 23.34375 22.640625 C 17.570312 22.640625 12.828125 20.925781 9.109375 17.5 C 5.398438 14.070312 3.488281 9.5625 3.375 3.96875 L 10.28125 3.96875 C 10.28125 7.539062 11.472656 10.476562 13.859375 12.78125 C 16.253906 15.09375 19.414062 16.25 23.34375 16.25 C 27.601562 16.25 30.828125 14.921875 33.015625 12.265625 C 35.203125 9.617188 36.296875 5.242188 36.296875 -0.859375 L 36.296875 -5.625 L 36.125 -5.625 C 34.507812 -3.539062 32.445312 -1.894531 29.9375 -0.6875 C 27.4375 0.519531 24.804688 1.125 22.046875 1.125 C 18.296875 1.125 14.953125 0.175781 12.015625 -1.71875 C 9.078125 -3.625 6.785156 -6.203125 5.140625 -9.453125 C 3.492188 -12.710938 2.671875 -16.273438 2.671875 -20.140625 C 2.671875 -24.117188 3.519531 -27.765625 5.21875 -31.078125 C 6.925781 -34.390625 9.273438 -36.992188 12.265625 -38.890625 C 15.265625 -40.796875 18.609375 -41.75 22.296875 -41.75 C 25.117188 -41.75 27.710938 -41.144531 30.078125 -39.9375 C 32.441406 -38.726562 34.457031 -37.023438 36.125 -34.828125 Z M 23 -35.359375 C 20.570312 -35.359375 18.347656 -34.722656 16.328125 -33.453125 C 14.316406 -32.179688 12.71875 -30.40625 11.53125 -28.125 C 10.351562 -25.851562 9.765625 -23.394531 9.765625 -20.75 C 9.765625 -16.3125 11.003906 -12.617188 13.484375 -9.671875 C 15.960938 -6.734375 19.160156 -5.265625 23.078125 -5.265625 C 27.171875 -5.265625 30.457031 -6.707031 32.9375 -9.59375 C 35.414062 -12.476562 36.65625 -16.164062 36.65625 -20.65625 C 36.65625 -24.976562 35.367188 -28.507812 32.796875 -31.25 C 30.234375 -33.988281 26.96875 -35.359375 23 -35.359375 Z M 23 -35.359375" stroke-linecap="round" />
</g>
		<g transform="matrix(1.33 0 0 1.33 -149.52 3.27)"  >
<path style="stroke: none; stroke-width: 1; stroke-dasharray: none; stroke-linecap: butt; stroke-dashoffset: 0; stroke-linejoin: miter; stroke-miterlimit: 4; fill: rgb(255,255,255); fill-rule: nonzero; opacity: 1;" vector-effect="non-scaling-stroke"  transform=" translate(-22.48, 20.31)" d="M 41.921875 -18.84375 L 10.03125 -18.84375 C 10.144531 -14.8125 11.46875 -11.539062 14 -9.03125 C 16.539062 -6.519531 19.65625 -5.265625 23.34375 -5.265625 C 25.9375 -5.265625 28.222656 -5.925781 30.203125 -7.25 C 32.191406 -8.582031 34.023438 -10.71875 35.703125 -13.65625 L 41.578125 -10.28125 C 39.617188 -6.65625 37.039062 -3.847656 33.84375 -1.859375 C 30.644531 0.128906 26.96875 1.125 22.8125 1.125 C 18.84375 1.125 15.328125 0.175781 12.265625 -1.71875 C 9.210938 -3.625 6.894531 -6.175781 5.3125 -9.375 C 3.726562 -12.570312 2.9375 -16.046875 2.9375 -19.796875 C 2.9375 -23.941406 3.726562 -27.6875 5.3125 -31.03125 C 6.894531 -34.375 9.1875 -36.992188 12.1875 -38.890625 C 15.1875 -40.796875 18.671875 -41.75 22.640625 -41.75 C 26.503906 -41.75 29.921875 -40.8125 32.890625 -38.9375 C 35.859375 -37.0625 38.117188 -34.484375 39.671875 -31.203125 C 41.234375 -27.921875 42.015625 -24.234375 42.015625 -20.140625 C 42.015625 -19.734375 41.984375 -19.300781 41.921875 -18.84375 Z M 34.65625 -24.71875 C 34.082031 -27.882812 32.671875 -30.445312 30.421875 -32.40625 C 28.179688 -34.375 25.617188 -35.359375 22.734375 -35.359375 C 19.910156 -35.359375 17.257812 -34.332031 14.78125 -32.28125 C 12.300781 -30.238281 10.832031 -27.71875 10.375 -24.71875 Z M 34.65625 -24.71875" stroke-linecap="round" />
</g>
		<g transform="matrix(1.33 0 0 1.33 -93.3 2.53)"  >
<path style="stroke: none; stroke-width: 1; stroke-dasharray: none; stroke-linecap: butt; stroke-dashoffset: 0; stroke-linejoin: miter; stroke-miterlimit: 4; fill: rgb(255,255,255); fill-rule: nonzero; opacity: 1;" vector-effect="non-scaling-stroke"  transform=" translate(-22.81, 20.88)" d="M 39.0625 0 L 32.15625 0 L 32.15625 -23.6875 C 32.15625 -27.78125 31.535156 -30.75 30.296875 -32.59375 C 29.054688 -34.4375 26.820312 -35.359375 23.59375 -35.359375 C 19.90625 -35.359375 17.296875 -34.085938 15.765625 -31.546875 C 14.242188 -29.015625 13.484375 -25.15625 13.484375 -19.96875 L 13.484375 0 L 6.5625 0 L 6.5625 -40.625 L 13.484375 -40.625 L 13.484375 -35.703125 L 13.65625 -35.703125 C 15.09375 -37.660156 16.75 -39.15625 18.625 -40.1875 C 20.5 -41.226562 22.703125 -41.75 25.234375 -41.75 C 29.785156 -41.75 33.226562 -40.347656 35.5625 -37.546875 C 37.894531 -34.753906 39.0625 -30.421875 39.0625 -24.546875 Z M 39.0625 0" stroke-linecap="round" />
</g>
		<g transform="matrix(1.33 0 0 1.33 -23.14 3.1)"  >
<path style="stroke: none; stroke-width: 1; stroke-dasharray: none; stroke-linecap: butt; stroke-dashoffset: 0; stroke-linejoin: miter; stroke-miterlimit: 4; fill: rgb(228,23,23); fill-rule: nonzero; opacity: 1;" vector-effect="non-scaling-stroke"  transform=" translate(-32.85, 20.44)" d="M 32.765625 -43.734375 L 45.46875 -13.140625 L 57.5625 -40.625 L 65.4375 -40.625 L 45.296875 2.859375 L 32.765625 -27.40625 L 20.21875 2.859375 L 0.265625 -40.625 L 8.125 -40.625 L 20.140625 -13.140625 Z M 9.859375 0 Z M 9.859375 0" stroke-linecap="round" />
</g>
		<g transform="matrix(1.33 0 0 1.33 39.83 2.53)"  >
<path style="stroke: none; stroke-width: 1; stroke-dasharray: none; stroke-linecap: butt; stroke-dashoffset: 0; stroke-linejoin: miter; stroke-miterlimit: 4; fill: rgb(228,23,23); fill-rule: nonzero; opacity: 1;" vector-effect="non-scaling-stroke"  transform=" translate(-17.38, 20.88)" d="M 25.234375 -33.53125 C 24.546875 -34.050781 23.898438 -34.484375 23.296875 -34.828125 C 22.691406 -35.179688 21.957031 -35.359375 21.09375 -35.359375 C 18.5 -35.359375 16.523438 -34.203125 15.171875 -31.890625 C 13.816406 -29.585938 13.140625 -25.875 13.140625 -20.75 L 13.140625 0 L 6.21875 0 L 6.21875 -40.625 L 13.140625 -40.625 L 13.140625 -36.21875 L 13.3125 -36.21875 C 14.976562 -38.46875 16.457031 -39.953125 17.75 -40.671875 C 19.050781 -41.390625 20.566406 -41.75 22.296875 -41.75 C 23.335938 -41.75 24.390625 -41.578125 25.453125 -41.234375 C 26.523438 -40.890625 27.550781 -40.425781 28.53125 -39.84375 Z M 25.234375 -33.53125" stroke-linecap="round" />
</g>
		<g transform="matrix(1.33 0 0 1.33 83.6 3.27)"  >
<path style="stroke: none; stroke-width: 1; stroke-dasharray: none; stroke-linecap: butt; stroke-dashoffset: 0; stroke-linejoin: miter; stroke-miterlimit: 4; fill: rgb(228,23,23); fill-rule: nonzero; opacity: 1;" vector-effect="non-scaling-stroke"  transform=" translate(-24.29, 20.31)" d="M 2.9375 -20.21875 C 2.9375 -24.082031 3.882812 -27.6875 5.78125 -31.03125 C 7.6875 -34.375 10.28125 -36.992188 13.5625 -38.890625 C 16.851562 -40.796875 20.425781 -41.75 24.28125 -41.75 C 28.144531 -41.75 31.703125 -40.796875 34.953125 -38.890625 C 38.210938 -36.992188 40.804688 -34.390625 42.734375 -31.078125 C 44.671875 -27.765625 45.640625 -24.144531 45.640625 -20.21875 C 45.640625 -16.363281 44.6875 -12.78125 42.78125 -9.46875 C 40.882812 -6.15625 38.289062 -3.5625 35 -1.6875 C 31.71875 0.1875 28.144531 1.125 24.28125 1.125 C 20.425781 1.125 16.84375 0.175781 13.53125 -1.71875 C 10.21875 -3.625 7.625 -6.234375 5.75 -9.546875 C 3.875 -12.859375 2.9375 -16.414062 2.9375 -20.21875 Z M 24.203125 -35.359375 C 20.109375 -35.359375 16.691406 -33.898438 13.953125 -30.984375 C 11.222656 -28.078125 9.859375 -24.519531 9.859375 -20.3125 C 9.859375 -17.195312 10.601562 -14.441406 12.09375 -12.046875 C 13.59375 -9.660156 15.421875 -7.929688 17.578125 -6.859375 C 19.742188 -5.796875 21.976562 -5.265625 24.28125 -5.265625 C 26.9375 -5.265625 29.359375 -5.882812 31.546875 -7.125 C 33.734375 -8.363281 35.472656 -10.148438 36.765625 -12.484375 C 38.066406 -14.816406 38.71875 -17.425781 38.71875 -20.3125 C 38.71875 -22.957031 38.128906 -25.429688 36.953125 -27.734375 C 35.773438 -30.046875 34.0625 -31.894531 31.8125 -33.28125 C 29.5625 -34.664062 27.023438 -35.359375 24.203125 -35.359375 Z M 24.203125 -35.359375" stroke-linecap="round" />
</g>
		<g transform="matrix(1.33 0 0 1.33 129.75 25.45)"  >
<path style="stroke: none; stroke-width: 1; stroke-dasharray: none; stroke-linecap: butt; stroke-dashoffset: 0; stroke-linejoin: miter; stroke-miterlimit: 4; fill: rgb(255,255,255); fill-rule: nonzero; opacity: 1;" vector-effect="non-scaling-stroke"  transform=" translate(-13.31, 3.72)" d="M 13.3125 1.125 C 11.988281 1.125 10.847656 0.632812 9.890625 -0.34375 C 8.941406 -1.320312 8.46875 -2.472656 8.46875 -3.796875 C 8.46875 -5.066406 8.941406 -6.175781 9.890625 -7.125 C 10.847656 -8.082031 11.988281 -8.5625 13.3125 -8.5625 C 14.632812 -8.5625 15.769531 -8.082031 16.71875 -7.125 C 17.675781 -6.175781 18.15625 -5.066406 18.15625 -3.796875 C 18.15625 -2.472656 17.675781 -1.320312 16.71875 -0.34375 C 15.769531 0.632812 14.632812 1.125 13.3125 1.125 Z M 13.3125 1.125" stroke-linecap="round" />
</g>
		<g transform="matrix(1.33 0 0 1.33 183.65 -15.19)"  >
<path style="stroke: none; stroke-width: 1; stroke-dasharray: none; stroke-linecap: butt; stroke-dashoffset: 0; stroke-linejoin: miter; stroke-miterlimit: 4; fill: rgb(255,255,255); fill-rule: nonzero; opacity: 1;" vector-effect="non-scaling-stroke"  transform=" translate(-30.21, 34.14)" d="M 30.59375 -68.28125 L 59.90625 0 L 51.859375 0 L 44.171875 -18.5 L 16.34375 -18.5 L 8.46875 0 L 0.515625 0 Z M 19.28125 -25.234375 L 41.3125 -25.234375 L 30.421875 -51.34375 Z M 11.75 -65.171875 Z M 11.75 -65.171875" stroke-linecap="round" />
</g>
		<g transform="matrix(1.33 0 0 1.33 233.81 -13.11)"  >
<path style="stroke: none; stroke-width: 1; stroke-dasharray: none; stroke-linecap: butt; stroke-dashoffset: 0; stroke-linejoin: miter; stroke-miterlimit: 4; fill: rgb(255,255,255); fill-rule: nonzero; opacity: 1;" vector-effect="non-scaling-stroke"  transform=" translate(-10.37, 32.59)" d="M 14 -65.171875 L 14 0 L 6.734375 0 L 6.734375 -65.171875 Z M 14 -65.171875" stroke-linecap="round" />
</g>
</g>
</g>
</svg>