<?xml version="1.0"?>
<svg width="375" height="112.499997" xmlns="http://www.w3.org/2000/svg" xmlns:svg="http://www.w3.org/2000/svg" preserveAspectRatio="xMidYMid meet" version="1.0">
 <defs>
  <g id="svg_1"/>
 </defs>
 <g class="layer">
  <title>Layer 1</title>
  <g fill="#260f0f" id="svg_2">
   <g id="svg_3" transform="translate(3.831996, 83.628313)">
    <g id="svg_4">
     <path d="m36.3,-34.83l0,-5.8l6.92,0l0,42.1c0,6.8 -1.9,12.03 -5.7,15.69c-3.81,3.65 -8.53,5.48 -14.18,5.48c-5.77,0 -10.51,-1.71 -14.23,-5.14c-3.71,-3.43 -5.62,-7.94 -5.73,-13.53l6.9,0c0,3.57 1.19,6.51 3.58,8.81c2.39,2.31 5.55,3.47 9.48,3.47c4.26,0 7.49,-1.33 9.68,-3.98c2.18,-2.65 3.28,-7.03 3.28,-13.13l0,-4.77l-0.17,0c-1.62,2.09 -3.68,3.74 -6.19,4.94c-2.5,1.21 -5.14,1.82 -7.89,1.82c-3.75,0 -7.1,-0.95 -10.03,-2.85c-2.94,-1.91 -5.23,-4.48 -6.88,-7.73c-1.65,-3.26 -2.47,-6.82 -2.47,-10.69c0,-3.98 0.85,-7.63 2.55,-10.94c1.71,-3.31 4.05,-5.91 7.05,-7.81c3,-1.91 6.34,-2.86 10.03,-2.86c2.82,0 5.41,0.61 7.78,1.81c2.36,1.21 4.38,2.92 6.05,5.11l0.17,0zm-13.3,-0.53c-2.43,0 -4.65,0.64 -6.67,1.91c-2.01,1.27 -3.61,3.04 -4.8,5.32c-1.18,2.28 -1.76,4.74 -1.76,7.38c0,4.44 1.23,8.13 3.71,11.08c2.48,2.94 5.68,4.4 9.6,4.4c4.09,0 7.38,-1.44 9.86,-4.32c2.47,-2.89 3.72,-6.57 3.72,-11.07c0,-4.32 -1.29,-7.85 -3.86,-10.59c-2.57,-2.74 -5.83,-4.11 -9.8,-4.11zm0,0" fill="#ffffff" id="svg_5" stroke="#ffffff"/>
    </g>
   </g>
  </g>
  <g fill="#260f0f" id="svg_6">
   <g id="svg_7" transform="translate(50.93499, 83.628313)">
    <g id="svg_8">
     <path d="m41.92,-18.84l-31.89,0c0.11,4.03 1.44,7.3 3.97,9.81c2.54,2.51 5.66,3.76 9.34,3.76c2.6,0 4.88,-0.66 6.86,-1.98c1.99,-1.33 3.82,-3.47 5.5,-6.41l5.88,3.38c-1.96,3.62 -4.54,6.43 -7.74,8.42c-3.2,1.99 -6.87,2.99 -11.03,2.99c-3.97,0 -7.48,-0.95 -10.54,-2.85c-3.06,-1.91 -5.38,-4.46 -6.96,-7.66c-1.58,-3.19 -2.37,-6.67 -2.37,-10.42c0,-4.14 0.79,-7.89 2.37,-11.23c1.58,-3.35 3.88,-5.96 6.88,-7.86c3,-1.91 6.48,-2.86 10.45,-2.86c3.86,0 7.28,0.94 10.25,2.81c2.97,1.88 5.23,4.46 6.78,7.74c1.56,3.28 2.35,6.97 2.35,11.06c0,0.41 -0.04,0.84 -0.1,1.3zm-7.26,-5.88c-0.58,-3.16 -1.99,-5.73 -4.24,-7.69c-2.24,-1.97 -4.8,-2.95 -7.69,-2.95c-2.82,0 -5.47,1.03 -7.95,3.08c-2.48,2.04 -3.95,4.56 -4.4,7.56l24.28,0zm0,0" fill="#ffffff" id="svg_9"/>
    </g>
   </g>
  </g>
  <g fill="#260f0f" id="svg_10" transform="matrix(1 0 0 1 0 0)">
   <g id="svg_11" transform="translate(92.765858, 83.628313)">
    <g id="svg_12">
     <path d="m39.06,0l-6.9,0l0,-23.69c0,-4.09 -0.62,-7.06 -1.86,-8.9c-1.25,-1.85 -3.48,-2.77 -6.71,-2.77c-3.68,0 -6.29,1.27 -7.82,3.81c-1.53,2.53 -2.29,6.39 -2.29,11.58l0,19.97l-6.92,0l0,-40.63l6.92,0l0,4.93l0.18,0c1.43,-1.96 3.09,-3.46 4.97,-4.49c1.87,-1.04 4.07,-1.56 6.6,-1.56c4.56,0 8,1.4 10.33,4.2c2.33,2.8 3.5,7.13 3.5,13l0,24.55zm0,0" fill="#ffffff" id="svg_13"/>
    </g>
   </g>
  </g>
  <g fill="#e41717" id="svg_14">
   <g id="svg_15" transform="translate(135.376251, 83.628313)">
    <g id="svg_16">
     <path d="m32.77,-43.73l12.7,30.59l12.09,-27.49l7.88,0l-20.14,43.49l-12.53,-30.27l-12.55,30.27l-19.95,-43.49l7.86,0l12.01,27.49l12.63,-30.59zm-22.91,43.73zm0,0" id="svg_17"/>
    </g>
   </g>
  </g>
  <g fill="#e41717" id="svg_18">
   <g id="svg_19" transform="translate(198.036365, 83.628313)">
    <g id="svg_20">
     <path d="m25.23,-33.53c-0.68,-0.52 -1.33,-0.95 -1.93,-1.3c-0.61,-0.35 -1.34,-0.53 -2.21,-0.53c-2.59,0 -4.57,1.16 -5.92,3.47c-1.35,2.3 -2.03,6.01 -2.03,11.14l0,20.75l-6.92,0l0,-40.63l6.92,0l0,4.41l0.17,0c1.67,-2.25 3.15,-3.73 4.44,-4.45c1.3,-0.72 2.82,-1.08 4.55,-1.08c1.04,0 2.09,0.17 3.15,0.52c1.07,0.34 2.1,0.8 3.08,1.39l-3.3,6.31zm0,0" id="svg_21"/>
    </g>
   </g>
  </g>
  <g fill="#e41717" id="svg_22">
   <g id="svg_23" transform="translate(223.964396, 83.628313)">
    <g id="svg_24">
     <path d="m2.94,-20.22c0,-3.86 0.94,-7.47 2.84,-10.81c1.91,-3.35 4.5,-5.96 7.78,-7.86c3.29,-1.91 6.87,-2.86 10.72,-2.86c3.86,0 7.42,0.95 10.67,2.86c3.26,1.9 5.85,4.5 7.78,7.81c1.94,3.31 2.91,6.94 2.91,10.86c0,3.86 -0.95,7.44 -2.86,10.75c-1.9,3.31 -4.49,5.91 -7.78,7.78c-3.28,1.88 -6.86,2.82 -10.72,2.82c-3.85,0 -7.44,-0.95 -10.75,-2.85c-3.31,-1.91 -5.9,-4.51 -7.78,-7.83c-1.87,-3.31 -2.81,-6.86 -2.81,-10.67zm21.26,-15.14c-4.09,0 -7.51,1.46 -10.25,4.38c-2.73,2.9 -4.09,6.46 -4.09,10.67c0,3.11 0.74,5.87 2.23,8.26c1.5,2.39 3.33,4.12 5.49,5.19c2.16,1.06 4.4,1.59 6.7,1.59c2.66,0 5.08,-0.61 7.27,-1.86c2.18,-1.23 3.92,-3.02 5.22,-5.35c1.3,-2.34 1.95,-4.95 1.95,-7.83c0,-2.65 -0.59,-5.12 -1.77,-7.42c-1.18,-2.32 -2.89,-4.16 -5.14,-5.55c-2.25,-1.38 -4.79,-2.08 -7.61,-2.08zm0,0" id="svg_25"/>
    </g>
   </g>
  </g>
  <g fill="#260f0f" id="svg_26" transform="matrix(1 0 0 1 0 0)">
   <g id="svg_27" transform="translate(269.522225, 83.628313)">
    <g id="svg_28">
     <path d="m13.31,1.13c-1.32,0 -2.46,-0.5 -3.42,-1.47c-0.95,-0.98 -1.42,-2.13 -1.42,-3.46c0,-1.27 0.47,-2.38 1.42,-3.33c0.96,-0.95 2.1,-1.43 3.42,-1.43c1.32,0 2.46,0.48 3.41,1.43c0.96,0.95 1.44,2.06 1.44,3.33c0,1.33 -0.48,2.48 -1.44,3.46c-0.95,0.97 -2.09,1.47 -3.41,1.47zm0,0" fill="#ffffff" id="svg_29"/>
    </g>
   </g>
  </g>
  <g fill="#260f0f" id="svg_30">
   <g id="svg_31" transform="translate(293.116685, 83.628313)">
    <g id="svg_32">
     <path d="m30.59,-68.28l29.32,68.28l-8.05,0l-7.69,-18.5l-27.83,0l-7.87,18.5l-7.95,0l30.07,-68.28zm-11.31,43.05l22.03,0l-10.89,-26.11l-11.14,26.11zm-7.53,-39.94zm0,0" fill="#ffffff" id="svg_33"/>
    </g>
   </g>
  </g>
  <g fill="#260f0f" id="svg_34">
   <g id="svg_35" transform="translate(350.504656, 83.628313)">
    <g id="svg_36">
     <path d="m14,-65.17l0,65.17l-7.27,0l0,-65.17l7.27,0zm0,0" fill="#ffffff" id="svg_37"/>
    </g>
   </g>
  </g>
 </g>
</svg>